<svg width="34" height="34" viewBox="0 0 34 34" fill="none" xmlns="http://www.w3.org/2000/svg">
    <path d="M1.58725 14.5001L16.6551 14.5001C18.1408 14.5001 19.3426 15.7046 19.3426 17.1904C19.3426 18.6762 18.1381 19.8807 16.6524 19.8807L1.58725 19.8807M3.73941 8.58155L16.6525 8.58155C21.4069 8.58155 25.261 12.4359 25.261 17.1904C25.261 21.9449 21.4068 25.7992 16.6524 25.7992L3.73941 25.7992M29.8313 7.4377C23.3309 -1.28678 10.2032 -1.11372 3.92901 7.77489C-0.0395814 13.3972 0.0302094 20.9298 4.10473 26.4759C10.3949 35.0376 23.1323 35.199 29.6429 26.8036C34.0475 21.1238 34.1257 13.2013 29.8313 7.4377Z" stroke="#6F00FF" stroke-width="2"/>
</svg>
